<svg xmlns="http://www.w3.org/2000/svg" viewBox="0 0 790.46 191.01"><g id="fe84bd91-a049-41cd-8556-21475a9f692d" data-name="Layer 2"><g id="be403e5e-3dde-4a21-94ae-a7b17ee01d2b" data-name="Layer 1"><path d="M16.39,149.4H.5v-4.25H36.77v4.25H20.89v40.77h-4.5Z" style="fill:#fff"></path><path d="M102,190.17H69.75v-45h31.7v4.25H74.25v16.14h26v4.18h-26v16.21H102Z" style="fill:#fff"></path><path d="M174,184.06a22.84,22.84,0,0,1-16.4,6.82c-15.56,0-23.34-10.42-23.4-23-.07-12.28,7.78-23.41,23.4-23.41,6,0,12,2.12,16,6.75L170.76,154a18.66,18.66,0,0,0-13.19-5.4c-12.53,0-18.9,9.26-18.9,19.22,0,10.55,6.37,18.85,18.9,18.85a19.41,19.41,0,0,0,13.51-5.53Z" style="fill:#fff"></path><path d="M240.06,190.17V170.23H212.8v19.94h-4.5v-45h4.5V166h27.26V145.15h4.51v45Z" style="fill:#fff"></path><path d="M314.71,181.68l-.26-14.92V145.15H319v45h-2.7L287.12,154l.13,13.31v22.89h-4.51v-45h2.83Z" style="fill:#fff"></path><path d="M399.83,167.79c-.06,11.77-7.52,23.22-22.76,23.22s-22.83-11.45-22.83-23.28c0-12.67,8.23-23.35,22.83-23.35C392.31,144.45,399.89,155.76,399.83,167.79Zm-22.76,19c12.28,0,18.19-9.32,18.26-19,0-10.09-6-19.1-18.26-19.16-12.09,0-18.46,8.55-18.33,19.16C358.87,177.63,364.78,186.76,377.07,186.76Z" style="fill:#fff"></path><path d="M439.61,145.15v40.78h25v4.24H435.11v-45Z" style="fill:#fff"></path><path d="M538.38,167.79c-.07,11.77-7.53,23.22-22.77,23.22s-22.83-11.45-22.83-23.28c0-12.67,8.24-23.35,22.83-23.35C530.85,144.45,538.44,155.76,538.38,167.79Zm-22.77,19c12.28,0,18.2-9.32,18.27-19,0-10.09-6-19.1-18.27-19.16-12.09,0-18.45,8.55-18.32,19.16C497.41,177.63,503.33,186.76,515.61,186.76Z" style="fill:#fff"></path><path d="M608,154a19.83,19.83,0,0,0-13.82-5.4c-12.29,0-18.91,9.13-18.85,19.22,0,9.84,6.24,18.59,18.85,18.59a19.31,19.31,0,0,0,12.92-4.89V170.17H592.37V166h19v17.43a23,23,0,0,1-17.23,7.39c-15.69,0-23.35-10.74-23.35-22.89-.06-13.76,9.13-23.54,23.35-23.54a23.45,23.45,0,0,1,16.52,6.75Z" style="fill:#fff"></path><path d="M647.4,190.17v-45h4.51v45Z" style="fill:#fff"></path><path d="M722.37,190.17H690.09v-45H721.8v4.25H694.59v16.14h26v4.18h-26v16.21h27.78Z" style="fill:#fff"></path><path d="M785.38,154.41c-2.64-4.24-8.17-5.65-12.93-5.72-5.53,0-12.67,1.61-12.67,8.23,0,5.28,5.79,6.69,12.8,7.91,8.88,1.55,17.88,3.54,17.88,13.12-.06,10.16-9.84,12.93-18,12.93-7.59,0-15.3-2.77-18.78-10l3.93-2.12c3.08,5.78,9.39,7.78,14.85,7.78s13.44-1.48,13.44-8.68c.07-6.11-6.75-7.66-13.76-8.88-8.49-1.48-16.85-3.34-16.85-12.09-.13-9.45,9.52-12.47,17.11-12.47,6.17,0,12.8,1.67,16.78,7.84Z" style="fill:#fff"></path><polygon points="203.27 105.75 163.87 105.75 193.58 79.64 180.09 45.2 152.58 115.67 147.9 127.39 112.59 127.39 164.16 5.4 196.53 5.4 248.09 127.39 212.1 127.39 203.27 105.75" style="fill:#fff;fill-rule:evenodd"></polygon><polygon points="744.19 105.75 704.79 105.75 734.5 79.64 721 45.2 693.5 115.67 688.82 127.39 653.51 127.39 705.08 5.4 737.44 5.4 789.01 127.39 753.02 127.39 744.19 105.75" style="fill:#fff;fill-rule:evenodd"></polygon><polygon points="547.29 105.75 507.88 105.75 537.6 79.64 524.1 45.2 496.6 115.67 491.91 127.39 456.61 127.39 508.18 5.4 540.54 5.4 592.11 127.39 556.12 127.39 547.29 105.75" style="fill:#fff;fill-rule:evenodd"></polygon><path d="M0,63.69A63.7,63.7,0,0,1,111,21L87.34,44.65a30.36,30.36,0,1,0,0,38.09L111,106.38A63.7,63.7,0,0,1,0,63.69Z" style="fill:#fff"></path><path d="M305.27,127.39q22.37-.15,35.52-10.44t13.44-29V87.6Q354,70.94,342.1,62.5t-33-12.64q-12.34-2.72-16.78-5.23t-4.18-6.54v-.35a6.58,6.58,0,0,1,3-5.51q3-2.19,9.11-2.28A51.42,51.42,0,0,1,317.08,33a70.24,70.24,0,0,1,17.09,8.9L351,18.2a69.57,69.57,0,0,0-22.12-12,88.16,88.16,0,0,0-27.72-4.09q-22,.31-34.35,10.94T254.22,40.86v.35q.12,12.32,6.11,19.64a39.64,39.64,0,0,0,16.26,11.49,140.39,140.39,0,0,0,23.31,7Q312,82,316.29,84.64t4,6.25v.35a6.85,6.85,0,0,1-3.55,6.1q-3.52,2.18-10.3,2.21a58.42,58.42,0,0,1-20.43-3.7A68.78,68.78,0,0,1,267.19,85l-18.68,22.32a76,76,0,0,0,25.9,15A94,94,0,0,0,305.27,127.39Z" style="fill:#fff;fill-rule:evenodd"></path><path d="M413.52,127.39Q435.89,127.24,449,117t13.45-29V87.6q-.21-16.66-12.13-25.1t-33-12.64Q405,47.15,400.55,44.63t-4.18-6.54v-.35a6.58,6.58,0,0,1,3-5.51q3-2.19,9.12-2.28A51.46,51.46,0,0,1,425.34,33a70.18,70.18,0,0,1,17.08,8.9L459.2,18.2a69.46,69.46,0,0,0-22.12-12,88.16,88.16,0,0,0-27.72-4.09q-22,.31-34.35,10.94T362.47,40.86v.35q.13,12.32,6.11,19.64a39.61,39.61,0,0,0,16.27,11.49,140.26,140.26,0,0,0,23.3,7q12.08,2.76,16.39,5.35t4,6.25v.35a6.87,6.87,0,0,1-3.55,6.1q-3.53,2.18-10.31,2.21a58.42,58.42,0,0,1-20.43-3.7A68.78,68.78,0,0,1,375.44,85l-18.68,22.32a76,76,0,0,0,25.91,15A93.92,93.92,0,0,0,413.52,127.39Z" style="fill:#fff;fill-rule:evenodd"></path><polygon points="607.45 127.86 638.63 127.86 687.83 5.74 650.93 5.74 623.38 82.48 595.84 5.74 558.24 5.74 607.45 127.86" style="fill:#fff;fill-rule:evenodd"></polygon></g></g></svg>